<svg xmlns="http://www.w3.org/2000/svg" width="100" height="100" viewBox="0 0 100 100" fill="none"><circle cx="50" cy="50" r="50" fill="white"></circle><path d="M64.1279 31.4453C59.9717 27.2891 54.4453 25 48.5674 25C42.6904 25 37.1641 27.2891 33.0078 31.4453C28.8516 35.6016 26.5625 41.1279 26.5625 47.0049C26.5625 52.8828 28.8516 58.4092 33.0078 62.5654C37.1641 66.7217 42.6904 69.0107 48.5674 69.0107C51.4648 69.0107 54.2773 68.4541 56.8818 67.3916L55.5303 62.3447C53.4072 63.3125 51.0488 63.8516 48.5674 63.8516C39.2793 63.8516 31.7217 56.2939 31.7217 47.0049C31.7217 37.7168 39.2793 30.1592 48.5674 30.1592C57.8564 30.1592 65.4141 37.7168 65.4141 47.0049C65.4141 50.9121 64.0762 54.5137 61.8359 57.375L67.1543 58.7998C69.3809 55.3066 70.5732 51.2471 70.5732 47.0049C70.5732 41.1279 68.2842 35.6016 64.1279 31.4453Z" fill="#855BFF"></path><path d="M48.5674 33.0889C40.8945 33.0889 34.6514 39.332 34.6514 47.0049C34.6514 54.6787 40.8945 60.9219 48.5674 60.9219C50.79 60.9219 52.8936 60.3984 54.7588 59.4678L53.6074 55.1699L58.5088 56.4834L58.7002 56.5342C61.0459 54.043 62.4844 50.6885 62.4844 47.0049C62.4844 39.332 56.2412 33.0889 48.5674 33.0889ZM53.7031 51.7432C53.3955 52.3105 52.9893 52.7676 52.4844 53.1162C51.9785 53.4648 51.3984 53.7178 50.7422 53.874C50.4619 53.9414 50.1777 53.9941 49.8896 54.0312V57.6045H46.96V53.9697C46.4395 53.8887 45.9326 53.7744 45.4355 53.6279C44.9033 53.4717 44.3877 53.2832 43.8887 53.0645C43.3906 52.8467 42.9297 52.5938 42.5059 52.3066L43.9814 49.377C44.0361 49.4453 44.2139 49.5752 44.5137 49.7666C44.8145 49.958 45.1865 50.1484 45.6309 50.3398C46.0742 50.5312 46.5693 50.7021 47.1162 50.8525C47.6621 51.0029 48.2158 51.0771 48.7754 51.0771C49.9639 51.0771 50.5586 50.7158 50.5586 49.9912C50.5586 49.7188 50.4687 49.4932 50.292 49.3154C50.1143 49.1377 49.8682 48.9775 49.5547 48.834C49.2402 48.6904 48.8682 48.5576 48.4375 48.4346C48.0068 48.3115 47.5391 48.1748 47.0342 48.0244C46.3643 47.8193 45.7842 47.5977 45.293 47.3584C44.8008 47.1201 44.3945 46.8438 44.0732 46.5293C43.752 46.2148 43.5137 45.8525 43.3564 45.4434C43.1992 45.0332 43.1211 44.5557 43.1211 44.0088C43.1211 43.2441 43.2646 42.5674 43.5508 41.9805C43.8379 41.3936 44.2275 40.8984 44.7188 40.4951C45.2109 40.0918 45.7803 39.7881 46.4297 39.583C46.6035 39.5283 46.7803 39.4805 46.96 39.4404V36.1455H49.8896V39.4023C49.9209 39.4072 49.9531 39.4131 49.9844 39.4189C50.4766 39.5146 50.9473 39.6377 51.3984 39.7881C51.8486 39.9385 52.2695 40.1094 52.6582 40.2998C53.0479 40.4922 53.4062 40.6826 53.7344 40.874L52.2588 43.6602C52.2178 43.6064 52.0742 43.5039 51.8281 43.3535C51.583 43.2031 51.2754 43.0459 50.9062 42.8818C50.5381 42.7178 50.1348 42.5742 49.6973 42.4521C49.2607 42.3291 48.8232 42.2676 48.3867 42.2676C47.1846 42.2676 46.583 42.6699 46.583 43.4766C46.583 43.7217 46.6484 43.9268 46.7783 44.0908C46.9072 44.2549 47.0986 44.4014 47.3516 44.5312C47.6045 44.6611 47.9219 44.7803 48.3047 44.8896C48.6865 44.999 49.1309 45.1221 49.6357 45.2588C50.333 45.4502 50.9609 45.6582 51.5215 45.8838C52.0811 46.1094 52.5557 46.3887 52.9453 46.7236C53.334 47.0586 53.6348 47.4648 53.8467 47.9424C54.0586 48.4209 54.1641 48.9951 54.1641 49.6641C54.1641 50.4834 54.0107 51.1768 53.7031 51.7432Z" fill="#855BFF"></path><path d="M68.4873 65.8105L71.3428 62.9551L57.751 59.3135L61.3926 72.9053L64.248 70.0498L69.1982 75L73.4375 70.7607L68.4873 65.8105Z" fill="#855BFF"></path></svg>