<svg xmlns="http://www.w3.org/2000/svg" width="100" height="100" viewBox="0 0 100 100" fill="none"><circle cx="50" cy="50" r="50" fill="white"></circle><path fill-rule="evenodd" clip-rule="evenodd" d="M35.5586 63.7588L39.1983 70.3877C39.7363 71.3682 39.4229 72.6055 38.4541 73.165C37.4854 73.7236 36.2149 73.4014 35.6768 72.4209L31.5293 64.8662C31.6651 64.8418 31.8008 64.8115 31.9365 64.7754C33.1582 64.4482 34.3506 64.0859 35.5586 63.7598V63.7588ZM63.7793 26.5625C69.1133 26.5625 73.4375 29.6387 73.4375 33.4326C73.4375 37.2266 69.1133 40.3027 63.7793 40.3027C61.919 40.3027 60.1817 39.9287 58.708 39.2803C58.5469 39.21 58.375 39.2266 58.2305 39.3271L55.1797 41.4697C54.9707 41.6162 54.7002 41.3945 54.8028 41.1611L56.1514 38.0938C56.2354 37.9014 56.1924 37.6875 56.041 37.5439C54.836 36.3975 54.1221 34.9746 54.1221 33.4336C54.1221 29.6396 58.4463 26.5635 63.7803 26.5635L63.7793 26.5625ZM58.2041 57.8848C57.9717 57.751 57.8906 57.4541 58.0244 57.2207C58.1582 56.9883 58.4551 56.9072 58.6885 57.041L62.4424 59.208C62.6748 59.3418 62.7559 59.6387 62.6221 59.8721C62.4883 60.1045 62.1914 60.1855 61.958 60.0518L58.2041 57.8848ZM56.3057 48.1445C56.1709 48.377 55.8731 48.457 55.6397 48.3223C55.4072 48.1875 55.3272 47.8896 55.4619 47.6562L57.6289 43.9023C57.7637 43.6699 58.0615 43.5898 58.2949 43.7246C58.5274 43.8594 58.6074 44.1572 58.4727 44.3906L56.3057 48.1445ZM59.2715 52.6221C59.0117 52.6914 58.7442 52.5371 58.6748 52.2764C58.6055 52.0156 58.7598 51.749 59.0205 51.6797L63.2071 50.5576C63.4668 50.4883 63.7344 50.6426 63.8037 50.9033C63.8731 51.1631 63.7188 51.4307 63.458 51.5L59.2715 52.6221ZM69.4688 31.5283H58.9307C58.6612 31.5283 58.4424 31.7471 58.4424 32.0166C58.4424 32.2861 58.6612 32.5049 58.9307 32.5049H69.4688C69.7383 32.5049 69.9571 32.2861 69.9571 32.0166C69.9571 31.7471 69.7383 31.5283 69.4688 31.5283ZM58.9307 34.3623C58.6621 34.3623 58.4444 34.5801 58.4444 34.8486C58.4444 35.1172 58.6621 35.335 58.9307 35.335L65.8848 35.3115C66.1533 35.3115 66.3711 35.0938 66.3711 34.8252C66.3711 34.5566 66.1533 34.3389 65.8848 34.3389L58.9307 34.3623ZM28.376 32.4189H40.1875C41.1865 32.4189 42.001 33.2334 42.001 34.2324V41.6631C42.001 42.6621 41.1865 43.4766 40.1875 43.4766H28.376C27.377 43.4766 26.5625 42.6621 26.5625 41.6631V34.2324C26.5625 33.2334 27.377 32.4189 28.376 32.4189ZM36.6465 38.498C37.0713 38.2529 37.0713 37.6436 36.6465 37.3984L33.7305 35.7148C33.3057 35.4697 32.7783 35.7744 32.7783 36.2646V39.6318C32.7783 40.1221 33.3057 40.4268 33.7305 40.1816L36.6465 38.498ZM70.4385 66.2754C70.4385 64.4824 69.1026 63.0293 67.4541 63.0293C66.2627 63.0293 65.2344 63.7881 64.7559 64.8857C64.2774 63.7881 63.249 63.0293 62.0576 63.0293C60.4092 63.0293 59.0733 64.4824 59.0733 66.2754C59.0733 68.3242 62.9365 71.752 64.3047 73.2334C64.5537 73.5029 64.958 73.5029 65.2071 73.2334C66.5752 71.7529 70.4385 68.3242 70.4385 66.2754ZM47.5459 41.9697C46.7129 42.1934 46.2129 43.0576 46.4365 43.8906L52.2696 65.6582C52.4932 66.4912 53.3574 66.9912 54.1905 66.7676C55.0235 66.5439 55.5235 65.6797 55.2998 64.8467L49.4668 43.0791C49.2432 42.2461 48.3789 41.7461 47.5459 41.9697ZM37.3711 62.3066C37.0889 62.3672 36.8262 62.4268 36.5781 62.4854L34.4346 54.4854C34.6787 54.4111 34.9365 54.3311 35.211 54.2432C41.0264 52.3721 44.3975 49.3682 46.126 46.5029L50.6944 63.5537C47.7647 61.9365 43.3428 61.0205 37.3711 62.3076V62.3066ZM35.6309 62.7197L33.4971 54.7559C32.209 55.1104 31.1787 55.3232 29.5225 55.7676C27.3838 56.3408 26.1035 58.5586 26.7149 60.8418C27.3262 63.124 29.5449 64.4053 31.6836 63.832C33.3399 63.3887 34.3389 63.0576 35.6309 62.7207V62.7197ZM52.6758 51.2793L54.0449 51.291C54.5684 51.2959 55.0088 51.6367 55.1446 52.1426L55.6846 54.1572C55.8203 54.6631 55.6094 55.1787 55.1582 55.4443L53.9785 56.1396L52.6758 51.2783V51.2793Z" fill="#855BFF"></path></svg>