<svg xmlns="http://www.w3.org/2000/svg" width="100" height="100" viewBox="0 0 100 100" fill="none"><circle cx="50" cy="50" r="50" fill="white"></circle><g clip-path="url(#clip0_488_14)"><path fill-rule="evenodd" clip-rule="evenodd" d="M69.4906 75L60.2808 66.0619L65.7889 60.3863L74.9988 69.3226L69.4906 75ZM52.0074 49.3902C51.588 49.3902 51.1849 49.2235 50.8878 48.926C50.5907 48.6293 50.4234 48.2263 50.4234 47.8059V36.1267C50.4234 35.2518 51.1325 34.5427 52.0074 34.5427H58.4891C59.3631 34.5427 60.073 35.2518 60.073 36.1267C60.073 37.0016 59.363 37.7106 58.4891 37.7106H53.5919V40.2957H56.8691C57.7435 40.2957 58.4531 41.0052 58.4531 41.8801C58.4531 42.755 57.7435 43.4641 56.8691 43.4641H53.5919V46.2219H58.4891C59.3631 46.2214 60.073 46.931 60.073 47.8059C60.073 48.6808 59.364 49.3898 58.4891 49.3898L52.0074 49.3902ZM65.8347 34.4474H65.7593C62.7903 34.4677 60.3809 36.8895 60.3809 39.863V43.897C60.3809 46.8832 62.8107 49.3131 65.797 49.3131C68.7837 49.3131 71.2127 46.8832 71.2127 43.897V39.863C71.2127 36.8895 68.804 34.4677 65.8347 34.4474ZM63.5492 43.897V39.863C63.5492 38.6238 64.5572 37.6152 65.797 37.6152C67.0362 37.6152 68.0442 38.6237 68.0442 39.863V43.897C68.0442 45.1362 67.0362 46.1447 65.797 46.1447C64.5573 46.1447 63.5492 45.1362 63.5492 43.897ZM40.9331 37.9824V40.0312C40.9331 40.1759 41.0602 40.303 41.2045 40.303H45.4374C47.3344 40.303 48.8768 41.8459 48.8768 43.7429V45.7916C48.8768 47.6886 47.3344 49.2318 45.4374 49.2318H39.3491C38.4737 49.2318 37.7651 48.5223 37.7651 47.6474C37.7651 46.7725 38.4737 46.0634 39.3491 46.0634H45.4374C45.5817 46.0634 45.7084 45.9363 45.7084 45.7915V43.7428C45.7084 43.5979 45.5817 43.4709 45.4374 43.4709H41.2045C39.3075 43.4709 37.7651 41.928 37.7651 40.0312V37.9824C37.7651 36.0854 39.3075 34.5426 41.2045 34.5426H47.2937C48.1677 34.5426 48.8777 35.2517 48.8777 36.1266C48.8777 37.0015 48.1678 37.7105 47.2937 37.7105H41.2045C41.0602 37.7105 40.9331 37.8377 40.9331 37.9824ZM62.3772 59.2731L57.6241 54.6627C56.7633 55.7262 55.7816 56.7166 54.68 57.6121C54.6514 57.6354 54.6227 57.6581 54.5939 57.6812L59.3978 62.3432L62.3772 59.2731ZM40.5932 55.1267C37.0716 54.7629 33.9112 53.0533 31.6779 50.3064C29.4609 47.5795 28.4219 44.0892 28.7829 40.5937C29.1467 37.0722 30.8551 33.9119 33.6023 31.679C35.9694 29.7553 38.8739 28.7109 41.9258 28.7109C42.3895 28.7109 42.8533 28.7358 43.3146 28.7835C46.5691 29.1194 49.5146 30.6031 51.7053 32.9945C51.8047 32.9851 51.9055 32.9802 52.0074 32.9802H56.3371C55.9685 32.3898 55.5601 31.8159 55.1102 31.2625C52.256 27.7504 48.1974 25.5568 43.6957 25.0922C43.1078 25.0314 42.5168 25 41.9258 25C38.0224 25 34.2917 26.3369 31.2618 28.7993C27.7506 31.6531 25.5565 35.7116 25.0916 40.2124C24.6282 44.6979 25.9537 49.1483 28.7984 52.6475C31.6526 56.1581 35.7111 58.353 40.2118 58.818C44.6971 59.2812 49.1476 57.9549 52.6467 55.1107C54.1316 53.9037 55.3583 52.4937 56.3201 50.9523L52.0075 50.9526C51.8988 50.9526 51.7907 50.947 51.6837 50.9358C51.2615 51.3938 50.8027 51.8273 50.3061 52.231C47.5791 54.4477 44.0887 55.4878 40.5932 55.1267Z" fill="#855BFF"></path></g><defs><clipPath id="clip0_488_14"><rect width="50" height="50" fill="white" transform="translate(25 25)"></rect></clipPath></defs></svg>